<svg width="1662" height="911" viewBox="0 0 1662 911" fill="none" xmlns="http://www.w3.org/2000/svg">
<g clip-path="url(#clip0_56_3)">
<path d="M1395.19 -500.57C1472.76 -436.769 1481.57 -288.696 1484.63 -164.397C1487.69 -40.0973 1484.08 60.2797 1485.98 173.917C1486.96 287.407 1494.67 412.448 1447.72 515.436C1400.92 617.496 1299.61 696.575 1188.84 709.383C1079 722.339 960.627 669.172 865.32 614.922C769.084 560.523 696.988 504.261 573.309 466.438C450.561 428.764 276.377 408.6 227.814 330.377C179.25 252.154 256.306 115.872 278.783 -31.0203C300.181 -177.132 267 -333.855 316.507 -446.911C366.163 -560.896 498.507 -631.216 631.008 -636.748C762.728 -643.357 893.527 -584.398 1032.41 -564.151C1170.51 -544.98 1316.69 -564.521 1395.19 -500.57Z" fill="#F2F3F8"/>
</g>
<defs>
<clipPath id="clip0_56_3">
<rect width="1475.88" height="1533.62" fill="white" transform="translate(242.194 -836.543) rotate(9.06272)"/>
</clipPath>
</defs>
</svg>
